<svg xmlns="http://www.w3.org/2000/svg" viewBox="0 0 627.64 553.01"><defs><style>.cls-1{fill:#fff;}.cls-2{fill:#daeff6;}.cls-3{fill:#62beff;}.cls-4{fill:#03aa6f;}.cls-5{fill:#dd2e2b;}.cls-6{fill:#ef5122;}.cls-7{fill:#ffdb6f;}</style></defs><title>Asset 6</title><g id="Layer_2" data-name="Layer 2"><g id="_π_ÃæÓ_1" data-name="∑π¿ÃæÓ_1"><path class="cls-1" d="M33.63,33.82H11.52V56.66H0V.77H36.39V10.1H11.52V24.53H33.63Z"/><path class="cls-1" d="M63.76,36.2H54.59V56.66H43.07V.77H63.84q9.9,0,15.28,4.41c3.58,3,5.37,7.1,5.37,12.48A17.22,17.22,0,0,1,82,27.2a17,17,0,0,1-7.51,6.08L86.6,56.12v.54H74.24Zm-9.17-9.33h9.29a9.53,9.53,0,0,0,6.72-2.21A7.91,7.91,0,0,0,73,18.58a8.43,8.43,0,0,0-2.25-6.22c-1.5-1.51-3.79-2.26-6.89-2.26H54.59Z"/><path class="cls-1" d="M126.87,32.44H104.76v15h26v9.25H93.24V.77h37.39V10.1H104.76V23.42h22.11Z"/><path class="cls-1" d="M171.1,32.44H149v15h26v9.25H137.47V.77h37.39V10.1H149V23.42H171.1Z"/><path class="cls-1" d="M201.27,56.66V.77h19.58q10.17,0,15.43,3.89t5.26,11.42a12.68,12.68,0,0,1-2.11,7.24,12.18,12.18,0,0,1-5.88,4.59,11.79,11.79,0,0,1,6.78,4.34,12.8,12.8,0,0,1,2.47,8q0,8.06-5.14,12.21T223,56.66Zm11.51-32.48h8.53Q230,24,230,17.24q0-3.81-2.21-5.47c-1.47-1.12-3.79-1.67-7-1.67h-8.07Zm0,8.14V47.41h9.87A9.52,9.52,0,0,0,229,45.47a6.63,6.63,0,0,0,2.29-5.35q0-7.68-7.95-7.8Z"/><path class="cls-1" d="M272.13,36.2H263V56.66H251.44V.77h20.77q9.9,0,15.28,4.41c3.58,3,5.37,7.1,5.37,12.48a17.22,17.22,0,0,1-2.47,9.54,17,17,0,0,1-7.51,6.08L295,56.12v.54H282.61ZM263,26.87h9.29A9.53,9.53,0,0,0,279,24.66a7.91,7.91,0,0,0,2.38-6.08,8.43,8.43,0,0,0-2.25-6.22c-1.5-1.51-3.79-2.26-6.89-2.26H263Z"/><path class="cls-1" d="M335.24,32.44H313.13v15h25.95v9.25H301.61V.77H339V10.1H313.13V23.42h22.11Z"/><path class="cls-1" d="M377.39,45.14H357.2l-3.84,11.52H341.12L361.92.77h10.67l20.93,55.89H381.27Zm-17.08-9.32h14l-7-20.93Z"/><path class="cls-1" d="M416.24,34.24l-6,6.45v16H398.74V.77h11.51V26.1l5.07-6.94L429.56.77h14.16L423.88,25.6,444.3,56.66H430.6Z"/><path class="cls-1" d="M482.27,33.82H460.16V56.66H448.64V.77H485V10.1H460.16V24.53h22.11Z"/><path class="cls-1" d="M515.89,45.14H495.7l-3.84,11.52H479.62L500.42.77H511.1L532,56.66H519.77Zm-17.08-9.32h14l-7-20.93Z"/><path class="cls-1" d="M566.22,42a5.91,5.91,0,0,0-2.3-5c-1.54-1.17-4.3-2.39-8.29-3.69a57.9,57.9,0,0,1-9.49-3.82q-9.51-5.14-9.52-13.86a13.52,13.52,0,0,1,2.56-8.08A16.58,16.58,0,0,1,546.51,2a27.43,27.43,0,0,1,10.73-2,25.05,25.05,0,0,1,10.67,2.17,16.94,16.94,0,0,1,7.27,6.12,16,16,0,0,1,2.6,9H566.26a7.52,7.52,0,0,0-2.42-6,9.89,9.89,0,0,0-6.79-2.14A10.63,10.63,0,0,0,550.48,11a5.63,5.63,0,0,0-2.34,4.7,5.38,5.38,0,0,0,2.75,4.57A31.07,31.07,0,0,0,559,23.69q9.82,2.94,14.31,7.33a14.57,14.57,0,0,1,4.5,10.9,13.47,13.47,0,0,1-5.49,11.38q-5.49,4.13-14.78,4.13a28.61,28.61,0,0,1-11.75-2.36,18.6,18.6,0,0,1-8.08-6.47,16.6,16.6,0,0,1-2.78-9.52h11.55q0,9.26,11.06,9.25a10.8,10.8,0,0,0,6.41-1.67A5.44,5.44,0,0,0,566.22,42Z"/><path class="cls-1" d="M627.64,10.1H610.52V56.66H599V10.1H582.11V.77h45.53Z"/><path class="cls-1" d="M170.12,132.09H148v22.84H136.49V99h36.39v9.33H148V122.8h22.12Z"/><path class="cls-1" d="M225.47,128.25a33.69,33.69,0,0,1-2.92,14.48,21.93,21.93,0,0,1-8.34,9.59,24.67,24.67,0,0,1-24.86,0,22.11,22.11,0,0,1-8.45-9.54,32.89,32.89,0,0,1-3-14.26V125.8a33.46,33.46,0,0,1,3-14.53,22.11,22.11,0,0,1,8.4-9.64,24.63,24.63,0,0,1,24.84,0,22.19,22.19,0,0,1,8.41,9.64,33.49,33.49,0,0,1,3,14.49Zm-11.67-2.53q0-8.79-3.15-13.36a11.11,11.11,0,0,0-17.92-.06q-3.15,4.52-3.19,13.23v2.72q0,8.56,3.15,13.29a10.25,10.25,0,0,0,9.06,4.72,10.14,10.14,0,0,0,8.9-4.55c2.08-3,3.13-7.46,3.15-13.26Z"/><path class="cls-1" d="M254.53,134.47h-9.17v20.46H233.84V99h20.77q9.9,0,15.28,4.42t5.37,12.47a17.19,17.19,0,0,1-2.47,9.54,17,17,0,0,1-7.51,6.09l12.09,22.84v.53H265Zm-9.17-9.33h9.29a9.49,9.49,0,0,0,6.71-2.2,7.88,7.88,0,0,0,2.38-6.09,8.44,8.44,0,0,0-2.24-6.22c-1.5-1.5-3.79-2.26-6.89-2.26h-9.25Z"/><path class="cls-1" d="M340.71,154.93H302.4v-7.6l18.08-19.27A44.13,44.13,0,0,0,326,121a11.41,11.41,0,0,0,1.79-5.76,8.5,8.5,0,0,0-1.89-5.85,6.77,6.77,0,0,0-5.37-2.13,7.32,7.32,0,0,0-5.93,2.59,10.25,10.25,0,0,0-2.17,6.81H301.29a18.31,18.31,0,0,1,2.44-9.33,17.17,17.17,0,0,1,6.89-6.62,20.9,20.9,0,0,1,10.09-2.4q8.64,0,13.42,4.15t4.78,11.71a18.81,18.81,0,0,1-2.15,8.44,46.67,46.67,0,0,1-7.37,10L316.68,146h24Z"/><path class="cls-1" d="M360.21,135.24v19.69H348.7V99h21.8a25.33,25.33,0,0,1,11.08,2.3,17.06,17.06,0,0,1,7.35,6.55,18.3,18.3,0,0,1,2.57,9.65q0,8.22-5.62,13t-15.57,4.74Zm0-9.33H370.5q4.58,0,7-2.15a7.81,7.81,0,0,0,2.4-6.14,9.23,9.23,0,0,0-2.42-6.64,9,9,0,0,0-6.68-2.61H360.21Z"/><path class="cls-1" d="M424.13,143.42H403.94l-3.84,11.51H387.85L408.66,99h10.67l20.92,55.89H428Zm-17.08-9.33h14l-7-20.92Z"/><path class="cls-1" d="M465.47,118.31,476,99H489.2l-16.28,27.72,16.7,28.17h-13.4l-10.75-19.57-10.75,19.57H441.33L458,126.76,441.75,99H455Z"/><path class="cls-2" d="M397.56,301.8l-2,29-18.81,10.5a67.22,67.22,0,0,1-60.18,2.4,67,67,0,0,0-60.17,2.4l-22.56,12.5-3.74-55.93L352.9,302l33.49-.16Z"/><path class="cls-3" d="M395.6,330.77l-12.39,186L241.64,474.85l-7.76-116.28,22.55-12.5a67,67,0,0,1,60.18-2.4,67.18,67.18,0,0,0,60.18-2.4Z"/><path class="cls-4" d="M386.39,407.87h89.32A145,145,0,0,1,330.84,553H257Z"/><path class="cls-5" d="M380.81,408.81h74.88v-.94A125.12,125.12,0,0,1,330.57,533h0Z"/><path d="M230.09,441.92H218.92a95,95,0,0,1,19.89-58l.68-.87,8.83,6.84-.69.88A83.73,83.73,0,0,0,230.09,441.92Z"/><path class="cls-4" d="M174.61,392.05h0a49.88,49.88,0,0,1,49.89,49.87h0A49.89,49.89,0,0,1,174.61,392h0Z"/><path class="cls-6" d="M219,548.32A33.74,33.74,0,0,1,183.86,547h0a64,64,0,0,1-26.44-37.17L154,496.62a64,64,0,0,1,19.6-64l1.62-1.43A24.89,24.89,0,0,1,186,425.59h1.57a49.77,49.77,0,0,0,36.95,16.33h0v-.13a9.56,9.56,0,0,0,6.14-2.23l10.69-8.93a25,25,0,0,1,32.48.46l1.62,1.43A64,64,0,0,1,297,483.25Z"/><path class="cls-7" d="M380.66,381a13.1,13.1,0,0,1,8.06,12.1v23.45a145.74,145.74,0,0,1-25,81.87,124.86,124.86,0,0,1-109.88,54.11,129.94,129.94,0,0,1-59.54-17.59l-.77-.45V514.1l24.72-1.86A153.59,153.59,0,0,0,358.06,385.52,10.44,10.44,0,0,1,370,376.85a10.79,10.79,0,0,1,2.32.65Z"/><path class="cls-3" d="M319.4,363.21H308.24v-94.9a5.57,5.57,0,0,1,2.58-4.71l61.41-39.08,6,9.42L319.4,271.37Z"/><rect x="403.13" y="424.61" width="11.16" height="11.16"/><rect x="386.38" y="480.44" width="11.16" height="11.16"/><rect x="403.13" y="458.11" width="11.16" height="11.16"/></g></g></svg>