<svg xmlns="http://www.w3.org/2000/svg" viewBox="0 0 323.77 328.49"><defs><style>.cls-1{fill:#daeff6;}.cls-2{fill:#62beff;}.cls-3{fill:#03aa6f;}.cls-4{fill:#dd2e2b;}.cls-5{fill:#ef5122;}.cls-6{fill:#ffdb6f;}</style></defs><title>Asset 5</title><g id="Layer_2" data-name="Layer 2"><g id="_π_ÃæÓ_1" data-name="∑π¿ÃæÓ_1"><path class="cls-1" d="M245.62,77.28l-2,29-18.81,10.5a67.19,67.19,0,0,1-60.18,2.4,67,67,0,0,0-60.18,2.4L82,134.05,78.21,78.12,201,77.5l33.5-.16Z"/><path class="cls-2" d="M243.67,106.25l-12.39,186L89.71,250.33,82,134.05l22.55-12.5a67,67,0,0,1,60.18-2.4,67.19,67.19,0,0,0,60.18-2.4Z"/><path class="cls-3" d="M234.46,183.35h89.31A145,145,0,0,1,178.9,328.49H105Z"/><path class="cls-4" d="M228.87,184.29h74.89v-.94A125.12,125.12,0,0,1,178.63,308.47h0Z"/><path d="M78.15,217.4H67a94.91,94.91,0,0,1,19.89-58l.68-.87,8.82,6.84-.68.88A83.67,83.67,0,0,0,78.15,217.4Z"/><path class="cls-3" d="M22.68,167.53h0A49.88,49.88,0,0,1,72.57,217.4h0a49.89,49.89,0,0,1-49.89-49.89h0Z"/><path class="cls-5" d="M67.09,323.8a33.74,33.74,0,0,1-35.17-1.37h0A64,64,0,0,1,5.49,285.26L2.05,272.1a64,64,0,0,1,19.6-64l1.62-1.43a24.89,24.89,0,0,1,10.78-5.58h1.57A49.77,49.77,0,0,0,72.57,217.4h0v-.12A9.59,9.59,0,0,0,78.71,215l10.69-8.93a25,25,0,0,1,32.48.46L123.5,208a64,64,0,0,1,21.58,50.73Z"/><path class="cls-6" d="M228.73,156.44a13.12,13.12,0,0,1,8.06,12.1V192a145.74,145.74,0,0,1-25,81.87A124.87,124.87,0,0,1,101.89,328a130,130,0,0,1-59.54-17.59l-.77-.45V289.58l24.73-1.86A153.57,153.57,0,0,0,206.12,161a10.45,10.45,0,0,1,11.95-8.68,11,11,0,0,1,2.32.65Z"/><path class="cls-2" d="M167.47,138.69H156.3V43.79a5.58,5.58,0,0,1,2.59-4.71L220.3,0l6,9.42L167.47,46.85Z"/><rect x="251.19" y="200.09" width="11.16" height="11.16"/><rect x="234.45" y="255.92" width="11.16" height="11.16"/><rect x="251.19" y="233.59" width="11.16" height="11.16"/></g></g></svg>