<svg xmlns="http://www.w3.org/2000/svg" viewBox="0 0 327.04 253.74"><defs><style>.cls-1{fill:#f5eee4;}.cls-2{fill:#6c4127;}.cls-3{fill:#bcb3aa;}.cls-4{fill:#9e6c53;}.cls-5{fill:#7383bf;}.cls-6{fill:#a8c9e3;}</style></defs><title>Asset 3</title><g id="Layer_2" data-name="Layer 2"><g id="_π_ÃæÓ_1" data-name="∑π¿ÃæÓ_1"><path class="cls-1" d="M12.3,141H314.74a12.3,12.3,0,0,1,12.12,10.56,1.31,1.31,0,0,0,.1-1.05L311.2,22.55C307.56,9.74,295.86,0,282.54,0H44.5c-13.32,0-25,9.74-28.66,22.55L.08,150.48a1.27,1.27,0,0,0,.09,1.05A12.31,12.31,0,0,1,12.3,141Z"/><rect class="cls-2" x="11.28" y="236.82" width="39.47" height="16.92"/><rect class="cls-2" x="276.29" y="236.82" width="39.47" height="16.92"/><path class="cls-3" d="M314.74,197.35H12.3A12.34,12.34,0,0,1,0,185.05V153.27A12.34,12.34,0,0,1,12.3,141H314.74a12.34,12.34,0,0,1,12.3,12.3v31.78A12.34,12.34,0,0,1,314.74,197.35Z"/><path class="cls-4" d="M314.74,236.82H12.3A12.33,12.33,0,0,1,0,224.53V209.66a12.34,12.34,0,0,1,12.3-12.3H314.74a12.34,12.34,0,0,1,12.3,12.3v14.87A12.33,12.33,0,0,1,314.74,236.82Z"/><path class="cls-5" d="M315.76,141H11.28a33.83,33.83,0,0,1,33.83-33.84H281.93A33.83,33.83,0,0,1,315.76,141Z"/><path class="cls-6" d="M125,107.13a17.18,17.18,0,0,0-.33-23.95L97.26,55.79a17.22,17.22,0,0,0-24.36,0L45.52,83.18a17.18,17.18,0,0,0-.33,23.95Z"/><path class="cls-6" d="M276.21,107.13a17.18,17.18,0,0,0-.33-23.95L248.5,55.79a17.22,17.22,0,0,0-24.36,0L196.76,83.18a17.18,17.18,0,0,0-.33,23.95Z"/></g></g></svg>