<svg xmlns="http://www.w3.org/2000/svg" viewBox="0 0 605.76 518.29"><defs><style>.cls-1{fill:#fff;}.cls-2{fill:#f5eee4;}.cls-3{fill:#6c4127;}.cls-4{fill:#bcb3aa;}.cls-5{fill:#9e6c53;}.cls-6{fill:#7383bf;}.cls-7{fill:#a8c9e3;}</style></defs><title>Asset 1</title><g id="Layer_2" data-name="Layer 2"><g id="_π_ÃæÓ_1" data-name="∑π¿ÃæÓ_1"><path class="cls-1" d="M26,60.42H14.12V14.82L0,19.2V9.58L24.68.74H26Z"/><path class="cls-1" d="M88.78,21.37,100,.82h14.12L96.72,30.37l17.81,30.05H100.24L88.78,39.54,77.32,60.42H63l17.8-30L63.49.82H77.61Z"/><path class="cls-1" d="M190.05,60.42H177.77L153.87,21.2V60.42H141.59V.82h12.28l23.94,39.29V.82h12.24Z"/><path class="cls-1" d="M213.83,60.42H201.55V.82h12.28Z"/><path class="cls-1" d="M272.36,52.88A21.37,21.37,0,0,1,263,59.05a39.23,39.23,0,0,1-13.42,2.19A26.58,26.58,0,0,1,236,57.86a22.53,22.53,0,0,1-9-9.81A34.35,34.35,0,0,1,223.74,33V28.9a36.55,36.55,0,0,1,3-15.45,22.25,22.25,0,0,1,8.67-10A25,25,0,0,1,248.71,0q10.59,0,16.57,5.06t7.08,14.71H260.41q-.81-5.11-3.62-7.49t-7.72-2.37a10.87,10.87,0,0,0-9.53,4.7q-3.27,4.71-3.32,14v3.81q0,9.38,3.56,14.16t10.44,4.79q6.91,0,9.87-2.95V38.15H248.91v-9h23.45Z"/><path class="cls-1" d="M330.82,60.42H318.54V34.87h-24V60.42H282.31V.82h12.28V25h24V.82h12.28Z"/><path class="cls-1" d="M385.22,10.77H367V60.42H354.68V10.77h-18V.82h48.55Z"/><path class="cls-1" d="M441.54,44.78a6.29,6.29,0,0,0-2.46-5.34q-2.44-1.86-8.84-3.93a63.69,63.69,0,0,1-10.11-4.07Q410,26,410,16.66A14.45,14.45,0,0,1,412.7,8a17.81,17.81,0,0,1,7.82-5.91A29.41,29.41,0,0,1,432,0a26.81,26.81,0,0,1,11.38,2.31,18.15,18.15,0,0,1,7.75,6.53,17,17,0,0,1,2.77,9.58H441.58A8.05,8.05,0,0,0,439,12.05q-2.58-2.27-7.24-2.27a11.31,11.31,0,0,0-7,1.91,6,6,0,0,0-2.5,5,5.73,5.73,0,0,0,2.93,4.87,33.15,33.15,0,0,0,8.61,3.69q10.49,3.15,15.27,7.81a15.59,15.59,0,0,1,4.79,11.63A14.33,14.33,0,0,1,448,56.83q-5.85,4.41-15.75,4.41a30.42,30.42,0,0,1-12.53-2.52,19.8,19.8,0,0,1-8.61-6.9,17.64,17.64,0,0,1-3-10.15h12.32q0,9.87,11.79,9.86a11.41,11.41,0,0,0,6.83-1.78A5.77,5.77,0,0,0,441.54,44.78Z"/><path class="cls-1" d="M507,10.77H488.77V60.42H476.49V10.77h-18V.82H507Z"/><path class="cls-1" d="M542.76,48.14H521.23l-4.09,12.28H504.08L526.27.82h11.38L560,60.42H546.9Zm-18.21-10h14.9L532,15.88Z"/><path class="cls-1" d="M579.93,27.67,592.33.82h13.43l-19.57,38V60.42H573.71V38.8L554.14.82h13.47Z"/><path class="cls-1" d="M149.34,140.85H125.77V165.2H113.49V105.61h38.8v9.94H125.77v15.39h23.57Z"/><path class="cls-1" d="M208.37,136.76a36,36,0,0,1-3.11,15.43,23.48,23.48,0,0,1-8.91,10.23,26.31,26.31,0,0,1-26.5,0,23.6,23.6,0,0,1-9-10.17,35.14,35.14,0,0,1-3.23-15.21v-2.94a35.88,35.88,0,0,1,3.17-15.5,23.68,23.68,0,0,1,9-10.27,26.27,26.27,0,0,1,26.48,0,23.6,23.6,0,0,1,9,10.27,35.6,35.6,0,0,1,3.18,15.45Zm-12.45-2.71q0-9.38-3.35-14.24a11.86,11.86,0,0,0-19.12-.06c-2.24,3.2-3.37,7.91-3.4,14.1v2.91q0,9.12,3.36,14.16a10.92,10.92,0,0,0,9.66,5,10.8,10.8,0,0,0,9.5-4.85q3.31-4.84,3.35-14.14Z"/><path class="cls-1" d="M239.35,143.39h-9.78V165.2H217.29V105.61h22.14q10.57,0,16.3,4.7t5.73,13.31a18.36,18.36,0,0,1-2.64,10.17,18,18,0,0,1-8,6.49l12.9,24.35v.57H250.53Zm-9.78-9.95h9.91c3.08,0,5.47-.79,7.16-2.35a8.44,8.44,0,0,0,2.54-6.49,9,9,0,0,0-2.4-6.63q-2.39-2.41-7.35-2.42h-9.86Z"/><path class="cls-1" d="M331.25,165.2H290.4v-8.1l19.27-20.55a47.23,47.23,0,0,0,5.88-7.57,12.18,12.18,0,0,0,1.9-6.14,9.12,9.12,0,0,0-2-6.24,7.23,7.23,0,0,0-5.73-2.28,7.82,7.82,0,0,0-6.33,2.77,10.94,10.94,0,0,0-2.31,7.26H289.21a19.54,19.54,0,0,1,2.6-9.94,18.25,18.25,0,0,1,7.35-7.06,22.25,22.25,0,0,1,10.76-2.56q9.21,0,14.31,4.42t5.09,12.48a20,20,0,0,1-2.29,9,49.91,49.91,0,0,1-7.86,10.68l-13.55,14.29h25.63Z"/><path class="cls-1" d="M352,144.21v21H339.76V105.61H363a26.89,26.89,0,0,1,11.81,2.45,18.09,18.09,0,0,1,7.84,7,19.47,19.47,0,0,1,2.74,10.3q0,8.76-6,13.81t-16.59,5.06Zm0-10h11c3.25,0,5.72-.77,7.43-2.29a8.34,8.34,0,0,0,2.56-6.55,9.82,9.82,0,0,0-2.58-7.08,9.62,9.62,0,0,0-7.12-2.79H352Z"/><path class="cls-1" d="M420.19,152.92H398.66l-4.09,12.28H381.51l22.19-59.59h11.38l22.3,59.59H424.33ZM402,143h14.9l-7.49-22.31Z"/><path class="cls-1" d="M464.27,126.15l11.18-20.54h14.12l-17.35,29.55,17.8,30H475.74l-11.47-20.87L452.81,165.2H438.53l17.8-30L439,105.61H453.1Z"/><path class="cls-2" d="M151.66,405.52H454.1a12.3,12.3,0,0,1,12.12,10.56,1.26,1.26,0,0,0,.1-1L450.56,287.11c-3.64-12.81-15.34-22.56-28.66-22.56h-238c-13.32,0-25,9.75-28.65,22.56L139.44,415a1.22,1.22,0,0,0,.1,1A12.3,12.3,0,0,1,151.66,405.52Z"/><rect class="cls-3" x="150.64" y="501.38" width="39.47" height="16.92"/><rect class="cls-3" x="415.65" y="501.38" width="39.47" height="16.92"/><path class="cls-4" d="M454.1,461.91H151.66a12.34,12.34,0,0,1-12.3-12.3V417.82a12.34,12.34,0,0,1,12.3-12.3H454.1a12.34,12.34,0,0,1,12.3,12.3v31.79A12.34,12.34,0,0,1,454.1,461.91Z"/><path class="cls-5" d="M454.1,501.38H151.66a12.34,12.34,0,0,1-12.3-12.3V474.21a12.34,12.34,0,0,1,12.3-12.3H454.1a12.34,12.34,0,0,1,12.3,12.3v14.87A12.34,12.34,0,0,1,454.1,501.38Z"/><path class="cls-6" d="M455.13,405.52H150.64a33.82,33.82,0,0,1,33.83-33.83H421.29a33.83,33.83,0,0,1,33.84,33.83Z"/><path class="cls-7" d="M264.33,371.69a17.19,17.19,0,0,0-.33-24l-27.38-27.39a17.22,17.22,0,0,0-24.36,0l-27.38,27.39a17.19,17.19,0,0,0-.33,24Z"/><path class="cls-7" d="M415.57,371.69a17.19,17.19,0,0,0-.33-24l-27.38-27.39a17.22,17.22,0,0,0-24.36,0l-27.38,27.39a17.19,17.19,0,0,0-.33,24Z"/></g></g></svg>