<svg xmlns="http://www.w3.org/2000/svg" viewBox="0 0 301.2 356.33"><defs><style>.cls-1{fill:#e95454;}.cls-2{fill:#ed6362;}.cls-3{fill:#ffcc5b;}.cls-4{fill:#ffdb70;}.cls-5{fill:#ec9922;}</style></defs><title>Asset 9</title><g id="Layer_2" data-name="Layer 2"><g id="_π_ÃæÓ_1" data-name="∑π¿ÃæÓ_1"><polygon class="cls-1" points="77.82 154.06 0 300.67 70.67 294.14 104.87 356.33 182.69 209.72 77.82 154.06"/><polygon class="cls-2" points="223.38 154.06 301.2 300.67 230.54 294.14 196.34 356.33 118.52 209.72 223.38 154.06"/><circle class="cls-3" cx="150.6" cy="130.03" r="130.03"/><path class="cls-4" d="M150.6,222.83A92.81,92.81,0,1,1,243.42,130,92.92,92.92,0,0,1,150.6,222.83Z"/><path class="cls-5" d="M215.4,109.47H170.25L156.3,66.53a6,6,0,0,0-11.4,0l-14,42.94H85.81a6,6,0,0,0-3.52,10.84l36.52,26.54-14,42.93a6,6,0,0,0,9.22,6.7l36.52-26.54,36.52,26.54a6,6,0,0,0,9.23-6.7L182.4,146.85l36.52-26.54A6,6,0,0,0,215.4,109.47Z"/></g></g></svg>