<svg xmlns="http://www.w3.org/2000/svg" viewBox="0 0 513.63 565.84"><defs><style>.cls-1{fill:#fff;}.cls-2{fill:#e95454;}.cls-3{fill:#ed6362;}.cls-4{fill:#ffcc5b;}.cls-5{fill:#ffdb70;}.cls-6{fill:#ec9922;}</style></defs><title>Asset 10</title><g id="Layer_2" data-name="Layer 2"><g id="_π_ÃæÓ_1" data-name="∑π¿ÃæÓ_1"><path class="cls-1" d="M12.63,23.8h5.91c2.82,0,4.9-.7,6.26-2.11a7.78,7.78,0,0,0,2-5.61,6.83,6.83,0,0,0-2-5.25,7.81,7.81,0,0,0-5.55-1.89,8.25,8.25,0,0,0-5.34,1.75,5.58,5.58,0,0,0-2.14,4.55H.69A13.65,13.65,0,0,1,3.05,7.39,15.74,15.74,0,0,1,9.65,2,22,22,0,0,1,19,0q8.87,0,13.9,4.24t5,11.69A11.76,11.76,0,0,1,35.59,23a15.34,15.34,0,0,1-6.15,5A13.87,13.87,0,0,1,36.49,33a13.84,13.84,0,0,1,2.32,8,14.73,14.73,0,0,1-5.43,11.94Q28,57.43,19,57.43q-8.37,0-13.68-4.42A14.4,14.4,0,0,1,0,41.34H11.09a6.45,6.45,0,0,0,2.36,5.15,8.73,8.73,0,0,0,5.82,2,8.72,8.72,0,0,0,6.2-2.09,7.2,7.2,0,0,0,2.25-5.55q0-8.36-9.22-8.36H12.63Z"/><path class="cls-1" d="M84.07,33.55q0,11.6-4.8,17.74t-14,6.14q-9.13,0-14-6t-5-17.27V23.84q0-11.71,4.85-17.77T65.14,0q9.15,0,14,6t4.95,17.25ZM73,22.24q0-7-1.9-10.12a6.43,6.43,0,0,0-5.94-3.18,6.3,6.3,0,0,0-5.77,3c-1.24,2-1.9,5.16-2,9.43V35q0,6.82,1.86,10.16a6.34,6.34,0,0,0,6,3.32,6.21,6.21,0,0,0,5.87-3.19q1.81-3.18,1.89-9.75Z"/><path class="cls-1" d="M129.18,33.55q0,11.6-4.8,17.74t-14,6.14q-9.15,0-14-6T91.4,34.13V23.84q0-11.71,4.86-17.77t14-6.07q9.14,0,14,6t5,17.25Zm-11.1-11.31q0-7-1.9-10.12a6.42,6.42,0,0,0-5.93-3.18,6.32,6.32,0,0,0-5.78,3c-1.24,2-1.9,5.16-2,9.43V35q0,6.82,1.86,10.16a6.34,6.34,0,0,0,6,3.32,6.22,6.22,0,0,0,5.87-3.19q1.8-3.18,1.88-9.75Z"/><path class="cls-1" d="M178.12,36.2H169V56.66H157.43V.77H178.2q9.9,0,15.28,4.41c3.58,3,5.37,7.1,5.37,12.48a17.22,17.22,0,0,1-2.48,9.54,16.92,16.92,0,0,1-7.5,6.08L201,56.12v.54H188.6ZM169,26.87h9.29A9.49,9.49,0,0,0,185,24.66a7.87,7.87,0,0,0,2.38-6.08,8.47,8.47,0,0,0-2.24-6.22c-1.5-1.51-3.79-2.26-6.89-2.26H169Z"/><path class="cls-1" d="M241.23,32.44H219.12v15h25.95v9.25H207.6V.77H245V10.1H219.12V23.42h22.11Z"/><path class="cls-1" d="M295.36,40.54,302.88.77h11.48L302,56.66H290.37l-9.1-37.39-9.1,37.39H260.58L248.18.77h11.48l7.56,39.69L276.43.77h9.75Z"/><path class="cls-1" d="M350.48,45.14H330.29l-3.84,11.52H314.21L335,.77h10.67l20.93,55.89H354.36ZM333.4,35.82h14l-7-20.93Z"/><path class="cls-1" d="M392.52,36.2h-9.18V56.66H371.83V.77h20.76q9.9,0,15.28,4.41c3.58,3,5.37,7.1,5.37,12.48a17.22,17.22,0,0,1-2.47,9.54,16.89,16.89,0,0,1-7.51,6.08l12.1,22.84v.54H403Zm-9.18-9.33h9.29a9.53,9.53,0,0,0,6.72-2.21,7.91,7.91,0,0,0,2.38-6.08,8.43,8.43,0,0,0-2.25-6.22q-2.24-2.27-6.89-2.26h-9.25Z"/><path class="cls-1" d="M422,56.66V.77h17.2a26,26,0,0,1,13.18,3.32,23.15,23.15,0,0,1,9.08,9.44,29.07,29.07,0,0,1,3.26,13.92V30a29.18,29.18,0,0,1-3.2,13.86,22.94,22.94,0,0,1-9,9.4,26.33,26.33,0,0,1-13.17,3.38ZM433.51,10.1V47.41h5.57q6.75,0,10.33-4.42t3.64-12.63V27.41q0-8.52-3.53-12.92c-2.35-2.93-5.8-4.39-10.32-4.39Z"/><path class="cls-1" d="M502.07,42a5.89,5.89,0,0,0-2.3-5c-1.53-1.17-4.3-2.39-8.29-3.69A58.11,58.11,0,0,1,482,29.48q-9.53-5.14-9.52-13.86A13.51,13.51,0,0,1,475,7.54,16.63,16.63,0,0,1,482.36,2a27.47,27.47,0,0,1,10.73-2,25.05,25.05,0,0,1,10.67,2.17A17,17,0,0,1,511,8.29a16,16,0,0,1,2.59,9H502.11a7.49,7.49,0,0,0-2.42-6,9.87,9.87,0,0,0-6.79-2.14A10.62,10.62,0,0,0,486.34,11a5.62,5.62,0,0,0-2.35,4.7,5.4,5.4,0,0,0,2.75,4.57,31.07,31.07,0,0,0,8.08,3.46q9.82,2.94,14.32,7.33a14.6,14.6,0,0,1,4.49,10.9,13.44,13.44,0,0,1-5.49,11.38q-5.49,4.13-14.78,4.13a28.64,28.64,0,0,1-11.75-2.36,18.66,18.66,0,0,1-8.08-6.47,16.6,16.6,0,0,1-2.78-9.52H482.3q0,9.26,11.06,9.25a10.76,10.76,0,0,0,6.41-1.67A5.42,5.42,0,0,0,502.07,42Z"/><path class="cls-1" d="M133.61,135.24v19.69H122.09V99H143.9a25.28,25.28,0,0,1,11.07,2.3,17,17,0,0,1,7.35,6.55,18.22,18.22,0,0,1,2.58,9.65q0,8.22-5.63,13t-15.56,4.74Zm0-9.33H143.9q4.56,0,7-2.15a7.78,7.78,0,0,0,2.4-6.14,9.22,9.22,0,0,0-2.41-6.64,9,9,0,0,0-6.68-2.61H133.61Z"/><path class="cls-1" d="M218.72,128.25a33.84,33.84,0,0,1-2.92,14.48,22,22,0,0,1-8.35,9.59,24.67,24.67,0,0,1-24.86,0,22.09,22.09,0,0,1-8.44-9.54,32.75,32.75,0,0,1-3-14.26V125.8a33.46,33.46,0,0,1,3-14.53,22.13,22.13,0,0,1,8.41-9.64,24.62,24.62,0,0,1,24.83,0,22.13,22.13,0,0,1,8.41,9.64,33.34,33.34,0,0,1,3,14.49Zm-11.67-2.53q0-8.79-3.15-13.36A11.12,11.12,0,0,0,186,112.3q-3.15,4.52-3.19,13.23v2.72q0,8.56,3.15,13.29a11,11,0,0,0,18,.17c2.07-3,3.12-7.46,3.15-13.26Z"/><path class="cls-1" d="M239.33,154.93H227.81V99h11.52Z"/><path class="cls-1" d="M295.45,154.93H283.94l-22.42-36.77v36.77H250V99h11.52L284,135.89V99h11.47Z"/><path class="cls-1" d="M347.58,108.37H330.46v46.56H319V108.37H302.06V99h45.52Z"/><path class="cls-1" d="M382.52,140.27a5.89,5.89,0,0,0-2.31-5c-1.53-1.16-4.3-2.39-8.29-3.69a59.13,59.13,0,0,1-9.48-3.81q-9.53-5.15-9.52-13.86a13.51,13.51,0,0,1,2.55-8.08,16.65,16.65,0,0,1,7.33-5.55,27.65,27.65,0,0,1,10.73-2,25.06,25.06,0,0,1,10.68,2.17,17,17,0,0,1,7.27,6.13,16,16,0,0,1,2.59,9H382.56a7.55,7.55,0,0,0-2.42-6,10,10,0,0,0-6.8-2.13,10.62,10.62,0,0,0-6.56,1.78,5.64,5.64,0,0,0-2.34,4.71,5.37,5.37,0,0,0,2.74,4.56,31.07,31.07,0,0,0,8.08,3.46q9.83,3,14.32,7.33a14.62,14.62,0,0,1,4.49,10.9,13.47,13.47,0,0,1-5.49,11.39q-5.49,4.13-14.78,4.12a28.56,28.56,0,0,1-11.74-2.36,18.47,18.47,0,0,1-8.08-6.47,16.51,16.51,0,0,1-2.79-9.52h11.56q0,9.26,11.05,9.25a10.69,10.69,0,0,0,6.41-1.67A5.41,5.41,0,0,0,382.52,140.27Z"/><polygon class="cls-2" points="184.03 363.57 106.21 510.18 176.88 503.65 211.08 565.84 288.9 419.23 184.03 363.57"/><polygon class="cls-3" points="329.6 363.57 407.42 510.18 336.75 503.65 302.55 565.84 224.73 419.23 329.6 363.57"/><circle class="cls-4" cx="256.81" cy="339.54" r="130.03"/><path class="cls-5" d="M256.81,432.34a92.81,92.81,0,1,1,92.82-92.8A92.92,92.92,0,0,1,256.81,432.34Z"/><path class="cls-6" d="M321.61,319H276.47l-14-42.94a6,6,0,0,0-11.4,0l-14,42.94H192a6,6,0,0,0-3.52,10.84L225,356.36l-14,42.94A6,6,0,0,0,220.3,406l36.51-26.54L293.33,406a6,6,0,0,0,9.23-6.69l-13.95-42.94,36.52-26.54A6,6,0,0,0,321.61,319Z"/></g></g></svg>