<svg xmlns="http://www.w3.org/2000/svg" viewBox="0 0 471.67 494.93"><defs><style>.cls-1{fill:#fff;}.cls-2{fill:#f4d44e;}.cls-3{fill:#e8c842;}.cls-4{fill:#656566;}.cls-5{fill:#9cd7f2;}.cls-6{fill:#71c5db;}</style></defs><title>Asset 12</title><g id="Layer_2" data-name="Layer 2"><g id="_π_ÃæÓ_1" data-name="∑π¿ÃæÓ_1"><path class="cls-1" d="M54.18,12H33.81V67.43H20.1V12H0V.91H54.18Z"/><path class="cls-1" d="M86.62,43.08H75.7V67.43H62V.91H86.71Q98.5.91,104.9,6.17T111.29,21a20.51,20.51,0,0,1-2.94,11.35,20.17,20.17,0,0,1-8.94,7.24l14.4,27.18v.64H99.09ZM75.7,32H86.76c3.44,0,6.11-.88,8-2.63a9.38,9.38,0,0,0,2.84-7.24,10,10,0,0,0-2.68-7.4Q92.24,12,86.71,12h-11Z"/><path class="cls-1" d="M142.45,30.88l13.84-30h15l-21.84,42.4V67.43H135.51V43.31L113.67.91h15Z"/><path class="cls-1" d="M238.21,53.73h-24l-4.57,13.7H195L219.8.91h12.7l24.9,66.52H242.82Zm-20.33-11.1h16.63l-8.36-24.9Z"/><path class="cls-1" d="M316.24,59a23.76,23.76,0,0,1-10.46,6.87,43.79,43.79,0,0,1-15,2.45,29.72,29.72,0,0,1-15.15-3.77,25.13,25.13,0,0,1-10-10.94A38.56,38.56,0,0,1,262,36.78V32.25A40.85,40.85,0,0,1,265.33,15,24.75,24.75,0,0,1,275,3.86,27.94,27.94,0,0,1,289.84,0q11.84,0,18.5,5.64t7.9,16.43H302.9q-.9-5.71-4-8.36t-8.61-2.65q-7,0-10.65,5.25t-3.7,15.63v4.24q0,10.47,4,15.81t11.65,5.35c5.15,0,8.81-1.1,11-3.29V42.58H290.06V32.48h26.18Z"/><path class="cls-1" d="M364.9,53.73h-24l-4.57,13.7H321.73L346.49.91h12.7l24.9,66.52H369.51Zm-20.33-11.1H361.2l-8.36-24.9Z"/><path class="cls-1" d="M404.87,67.43h-13.7V.91h13.7Z"/><path class="cls-1" d="M471.67,67.43H458L431.28,23.67V67.43H417.57V.91h13.71L458,44.77V.91h13.66Z"/><path class="cls-2" d="M304.42,165.36C189.42,115.55,64,201.53,64.06,322.91,63.85,444,187.52,527.68,300.13,482.48,441.92,425.22,443.5,226,304.42,165.36Z"/><path class="cls-3" d="M179.82,454.62C71.6,392.14,65,239.15,165.12,166.94a171.58,171.58,0,1,0,171,295.51A171.34,171.34,0,0,1,179.82,454.62Z"/><path class="cls-4" d="M312.28,325.6c-10.6-6.19-22.54-8-33.62-5.11a5.19,5.19,0,1,1-2.62-10c13.76-3.59,28.48-1.39,41.47,6.19a5.19,5.19,0,0,1-5.23,9Z"/><path class="cls-4" d="M152.54,323.73a5.19,5.19,0,0,1,1.87-7.09c13-7.58,27.71-9.78,41.47-6.19a5.19,5.19,0,0,1-2.63,10c-11.07-2.89-23-1.08-33.61,5.11A5.19,5.19,0,0,1,152.54,323.73Z"/><path class="cls-4" d="M198.6,412a5.18,5.18,0,0,1-2.57-6.87c15.77-34.72,64.62-33.7,79.87,0a5.19,5.19,0,0,1-9.46,4.28c-11.84-26.18-49.08-26.12-61,0A5.19,5.19,0,0,1,198.6,412Z"/><path class="cls-5" d="M122.39,264.3h0A38.9,38.9,0,0,0,158,209.75l-28.59-54.86a7,7,0,0,0-12.45,0L87.72,211.2A37.87,37.87,0,0,0,122.39,264.3Z"/><path class="cls-6" d="M113.8,221l10.62-62.55a6.91,6.91,0,0,1,3.87-5.15A7,7,0,0,0,117,154.9L87.72,211.2a37.87,37.87,0,0,0,34.67,53.1h0a38.78,38.78,0,0,0,16.53-3.65A37.85,37.85,0,0,1,113.8,221Z"/></g></g></svg>