<svg xmlns="http://www.w3.org/2000/svg" viewBox="0 0 343.56 343.97"><defs><style>.cls-1{fill:#f4d44e;}.cls-2{fill:#e8c842;}.cls-3{fill:#656566;}.cls-4{fill:#9cd7f2;}.cls-5{fill:#71c5db;}</style></defs><title>Asset 11</title><g id="Layer_2" data-name="Layer 2"><g id="_π_ÃæÓ_1" data-name="∑π¿ÃæÓ_1"><path class="cls-1" d="M240.37,14.4C125.37-35.41,0,50.56,0,172-.2,293,123.47,376.72,236.08,331.52,377.87,274.25,379.45,75,240.37,14.4Z"/><path class="cls-2" d="M115.77,303.66C7.55,241.18,1,88.18,101.07,16a171.58,171.58,0,1,0,171,295.51A171.3,171.3,0,0,1,115.77,303.66Z"/><path class="cls-3" d="M248.22,174.63c-10.6-6.18-22.53-8-33.61-5.1a5.19,5.19,0,0,1-2.62-10c13.75-3.59,28.48-1.4,41.46,6.18a5.19,5.19,0,1,1-5.23,9Z"/><path class="cls-3" d="M88.49,172.77a5.19,5.19,0,0,1,1.87-7.1c13-7.58,27.71-9.77,41.46-6.18a5.19,5.19,0,1,1-2.62,10c-11.08-2.89-23-1.08-33.61,5.1A5.18,5.18,0,0,1,88.49,172.77Z"/><path class="cls-3" d="M134.55,261a5.19,5.19,0,0,1-2.58-6.87c15.78-34.72,64.63-33.69,79.87,0a5.19,5.19,0,1,1-9.45,4.28c-11.85-26.18-49.09-26.13-61,0A5.19,5.19,0,0,1,134.55,261Z"/><path class="cls-4" d="M58.34,113.33h0A38.9,38.9,0,0,0,94,58.79L65.36,3.93a7,7,0,0,0-12.46,0L23.66,60.23A37.87,37.87,0,0,0,58.34,113.33Z"/><path class="cls-5" d="M49.75,70,60.36,7.5a6.93,6.93,0,0,1,3.88-5.15A7,7,0,0,0,52.9,3.93L23.66,60.23a37.87,37.87,0,0,0,34.68,53.1h0a38.78,38.78,0,0,0,16.53-3.64A37.87,37.87,0,0,1,49.75,70Z"/></g></g></svg>