<svg xmlns="http://www.w3.org/2000/svg" viewBox="0 0 293.62 304.3"><defs><style>.cls-1{fill:#c4c8ca;}.cls-2{fill:#4681a0;}.cls-3{fill:#dadfe1;}.cls-4{fill:#e2574c;}</style></defs><title>Asset 7</title><g id="Layer_2" data-name="Layer 2"><g id="_π_ÃæÓ_1" data-name="∑π¿ÃæÓ_1"><rect class="cls-1" x="32.81" y="17.58" width="187.33" height="269.14" rx="19.86" ry="19.86" transform="translate(-42.01 48.43) rotate(-18.65)"/><path class="cls-2" d="M155.92,181.17l-37.1-57.47,5.1,68.27q.52,7.78.47,11.26a14.32,14.32,0,0,1-2,6.88,11.17,11.17,0,0,1-6.48,4.94,12,12,0,0,1-6.56.58,11.58,11.58,0,0,1-5.26-2.84,28.54,28.54,0,0,1-4.56-5.55c-1.46-2.24-2.78-4.33-4-6.26L55.39,136a45.82,45.82,0,0,1-4.64-8.86,10,10,0,0,1,.37-7.77,9.34,9.34,0,0,1,5.7-5q5.43-1.83,8.57,1.25a46.36,46.36,0,0,1,6.93,9.68l33.53,56.84L101,119.94a103,103,0,0,1-.49-11,15.24,15.24,0,0,1,2.16-7.34q2-3.47,7-5.15t8.69,0a15.17,15.17,0,0,1,5.78,4.38q2.12,2.72,6.31,9.18l33.88,52.34-7.76-65.53c-.45-3.41-.71-6.11-.76-8.11A12.75,12.75,0,0,1,157,82.87a8.24,8.24,0,0,1,5.21-4.15,9.43,9.43,0,0,1,7.54.52,9.93,9.93,0,0,1,5,6,50.55,50.55,0,0,1,1.69,9.86l7.43,76.08q.73,7.71.75,11.41a14.7,14.7,0,0,1-1.79,7.09c-1.2,2.27-3.41,3.94-6.64,5a11.21,11.21,0,0,1-8.13,0,13.89,13.89,0,0,1-5.67-4.18Q160.35,187.88,155.92,181.17Z"/><path class="cls-2" d="M17.24,70.14a8.63,8.63,0,0,1-.17-4.57,10.29,10.29,0,0,1,2.43-4.69,11.33,11.33,0,0,1,5.05-3.24,11.86,11.86,0,0,1,5.57-.6,9.1,9.1,0,0,1,4.53,2,8.43,8.43,0,0,1,2.67,3.89,7.39,7.39,0,0,1,.39,3.45,10.28,10.28,0,0,1-.86,2.94c-.41.88-1.18,2.4-2.31,4.54a16.57,16.57,0,0,0-.7,1.54,5.18,5.18,0,0,0-.31,1.14,5,5,0,0,0,0,.94c0,.31.08.84.17,1.59.25,1.58-.3,2.6-1.65,3A2.49,2.49,0,0,1,30,82,3.15,3.15,0,0,1,28.55,80,8.79,8.79,0,0,1,28,76.71a8.34,8.34,0,0,1,.61-2.8,34.9,34.9,0,0,1,1.54-3.17c.59-1.09,1-1.91,1.26-2.45a6.54,6.54,0,0,0,.5-1.7,3.57,3.57,0,0,0-.15-1.77,4.15,4.15,0,0,0-2.19-2.5,4.49,4.49,0,0,0-3.5-.14,4.38,4.38,0,0,0-2.88,2.31,10.24,10.24,0,0,0-.59,4.12c.09,1.78-.5,2.88-1.78,3.31a2.62,2.62,0,0,1-2.2-.2A2.82,2.82,0,0,1,17.24,70.14ZM35.08,90.42a3.2,3.2,0,0,1-4.17-2.19A3.41,3.41,0,0,1,31,85.64,3.08,3.08,0,0,1,32.9,84a3,3,0,0,1,2.46.2,3.44,3.44,0,0,1,1.64,2,3.29,3.29,0,0,1-.11,2.68A3.14,3.14,0,0,1,35.08,90.42Z"/><path class="cls-2" d="M211.64,226.85a8.39,8.39,0,0,1-.16-4.45,10,10,0,0,1,2.36-4.57,11,11,0,0,1,4.92-3.16,11.61,11.61,0,0,1,5.42-.58,8.8,8.8,0,0,1,4.41,1.92,8.27,8.27,0,0,1,2.61,3.79,7.27,7.27,0,0,1,.38,3.36,9.82,9.82,0,0,1-.84,2.86c-.4.86-1.15,2.34-2.25,4.42a12.76,12.76,0,0,0-.68,1.51,4.69,4.69,0,0,0-.3,1.1,4.77,4.77,0,0,0,0,.92c0,.3.07.81.16,1.55a2.36,2.36,0,0,1-1.61,3,2.43,2.43,0,0,1-2-.13,3.1,3.1,0,0,1-1.42-1.88,8.67,8.67,0,0,1-.51-3.23,8.36,8.36,0,0,1,.59-2.72q.53-1.28,1.5-3.09c.58-1.07,1-1.87,1.23-2.39a6.39,6.39,0,0,0,.49-1.65,3.66,3.66,0,0,0-.15-1.73,4.06,4.06,0,0,0-2.13-2.44,4.36,4.36,0,0,0-3.41-.13,4.27,4.27,0,0,0-2.8,2.24,10.17,10.17,0,0,0-.58,4c.09,1.73-.49,2.81-1.74,3.23a2.56,2.56,0,0,1-2.14-.2A2.81,2.81,0,0,1,211.64,226.85ZM229,246.6a3.11,3.11,0,0,1-4-2.13,3.28,3.28,0,0,1,.11-2.52,3,3,0,0,1,1.82-1.62,2.92,2.92,0,0,1,2.4.2,3.27,3.27,0,0,1,1.59,1.93,3.17,3.17,0,0,1-.1,2.61A3.06,3.06,0,0,1,229,246.6Z"/><rect class="cls-3" x="94.06" y="15.63" width="199.56" height="269.14" rx="19.86" ry="19.86"/><path class="cls-4" d="M213.68,187.11,195.8,120.79l-18.11,66.32q-2.12,7.54-3.35,10.82a14.41,14.41,0,0,1-4.34,5.89,12.41,12.41,0,0,1-8.23,2.6,13.5,13.5,0,0,1-6.82-1.55,11.89,11.89,0,0,1-4.34-4.37,27.7,27.7,0,0,1-2.72-6.72q-1-3.89-1.88-7.2L127.6,112.12a43.42,43.42,0,0,1-1.66-9.88A9.75,9.75,0,0,1,129,95a10.28,10.28,0,0,1,7.47-2.94q6.1,0,8.22,3.92a44.51,44.51,0,0,1,3.7,11.4l14.48,64.57,16.22-60.42A99.91,99.91,0,0,1,182.29,101,15.33,15.33,0,0,1,187,94.69c2.16-1.76,5.11-2.64,8.83-2.64s6.7.92,8.79,2.76a15,15,0,0,1,4.33,6q1.22,3.26,3.25,10.72l16.37,60.42L243,107.37a79.16,79.16,0,0,1,2-7.93,12.69,12.69,0,0,1,3.25-5.13c1.53-1.5,3.76-2.26,6.67-2.26A10.36,10.36,0,0,1,262.37,95a9.6,9.6,0,0,1,3.06,7.28,47.76,47.76,0,0,1-1.66,9.88l-18.41,74.46q-1.89,7.54-3.13,11a14.76,14.76,0,0,1-4.22,6.15q-3,2.64-8.41,2.64a12.47,12.47,0,0,1-8.23-2.57,13.92,13.92,0,0,1-4.3-5.77Q215.87,194.89,213.68,187.11Z"/><path class="cls-4" d="M111.51,37.56a8.19,8.19,0,0,1,1.39-4.38,10.58,10.58,0,0,1,4-3.67,12.72,12.72,0,0,1,6.21-1.46A13.31,13.31,0,0,1,129,29.27a9.51,9.51,0,0,1,3.9,3.31,8.18,8.18,0,0,1,1.37,4.55,7.07,7.07,0,0,1-.78,3.39A10.4,10.4,0,0,1,131.6,43q-1.08,1-3.87,3.56a14.37,14.37,0,0,0-1.24,1.24,4.77,4.77,0,0,0-.7,1,4.61,4.61,0,0,0-.35.88c-.08.3-.21.82-.37,1.56a2.53,2.53,0,0,1-2.71,2.36,2.75,2.75,0,0,1-2-.77,3,3,0,0,1-.81-2.3,8.07,8.07,0,0,1,2.16-5.76,36.08,36.08,0,0,1,2.64-2.51q1.45-1.27,2.1-1.92a6.69,6.69,0,0,0,1.1-1.45,3.53,3.53,0,0,0,.44-1.73,4,4,0,0,0-1.35-3.07,5,5,0,0,0-3.49-1.25,4.81,4.81,0,0,0-3.69,1.27,10.11,10.11,0,0,0-2,3.71c-.52,1.72-1.49,2.57-2.93,2.57a2.88,2.88,0,0,1-2.15-.9A2.7,2.7,0,0,1,111.51,37.56Zm11.1,24.92a3.6,3.6,0,0,1-2.42-.89,3.16,3.16,0,0,1-1-2.52,3.27,3.27,0,0,1,1-2.41,3.4,3.4,0,0,1,2.46-1A3.35,3.35,0,0,1,126,59.07a3.14,3.14,0,0,1-1,2.5A3.43,3.43,0,0,1,122.61,62.48Z"/><path class="cls-4" d="M254.36,248.2a8,8,0,0,1,1.35-4.26,10.42,10.42,0,0,1,3.94-3.58,12.45,12.45,0,0,1,6-1.42,12.85,12.85,0,0,1,5.67,1.19,9.16,9.16,0,0,1,3.8,3.22,7.87,7.87,0,0,1,1.34,4.43,6.81,6.81,0,0,1-.76,3.3,10.15,10.15,0,0,1-1.82,2.45c-.7.68-2,1.84-3.77,3.46a13.68,13.68,0,0,0-1.21,1.21,5.57,5.57,0,0,0-.68.95,5.21,5.21,0,0,0-.34.87c-.08.29-.2.79-.36,1.51a2.47,2.47,0,0,1-2.64,2.31,2.68,2.68,0,0,1-1.94-.76,3,3,0,0,1-.78-2.23,7.85,7.85,0,0,1,2.1-5.62,34.14,34.14,0,0,1,2.57-2.44c.94-.83,1.63-1.45,2.05-1.87a6.59,6.59,0,0,0,1.06-1.41,3.39,3.39,0,0,0,.43-1.68,3.89,3.89,0,0,0-1.32-3,4.76,4.76,0,0,0-3.4-1.22,4.68,4.68,0,0,0-3.58,1.23,9.7,9.7,0,0,0-1.95,3.62c-.5,1.67-1.46,2.5-2.86,2.5a2.81,2.81,0,0,1-2.09-.87A2.69,2.69,0,0,1,254.36,248.2Zm10.8,24.28a3.53,3.53,0,0,1-2.36-.88,3.07,3.07,0,0,1-1-2.45,3.12,3.12,0,0,1,1-2.34,3.28,3.28,0,0,1,2.39-1,3.26,3.26,0,0,1,3.3,3.3,3.1,3.1,0,0,1-1,2.44A3.4,3.4,0,0,1,265.16,272.48Z"/></g></g></svg>