<svg xmlns="http://www.w3.org/2000/svg" viewBox="0 0 482.95 491.68"><defs><style>.cls-1{fill:#fff;}.cls-2{fill:#c4c8ca;}.cls-3{fill:#4681a0;}.cls-4{fill:#dadfe1;}.cls-5{fill:#e2574c;}</style></defs><title>Asset 8</title><g id="Layer_2" data-name="Layer 2"><g id="_π_ÃæÓ_1" data-name="∑π¿ÃæÓ_1"><path class="cls-1" d="M56.15,48.24,65.1.91H78.76L64,67.43H50.21L39.38,22.93,28.55,67.43H14.76L0,.91H13.66l9,47.24L33.63.91h11.6Z"/><path class="cls-1" d="M100.74,67.43H87V.91h13.71Z"/><path class="cls-1" d="M127.15,56.42h29.1v11H113.44V.91h13.71Z"/><path class="cls-1" d="M164.11,67.43V.91h20.46a31.07,31.07,0,0,1,15.7,4,27.58,27.58,0,0,1,10.8,11.23A34.67,34.67,0,0,1,215,32.67v3.06a34.79,34.79,0,0,1-3.81,16.49,27.31,27.31,0,0,1-10.76,11.19,31.3,31.3,0,0,1-15.67,4ZM177.81,12v44.4h6.63q8,0,12.29-5.25t4.34-15V32.62q0-10.14-4.21-15.37T184.57,12Z"/><path class="cls-1" d="M300.43,45.28q-.76,10.72-7.92,16.9t-18.85,6.17q-12.8,0-20.12-8.61T246.2,36.09V32a39.82,39.82,0,0,1,3.39-16.91,25.27,25.27,0,0,1,9.66-11.21A27,27,0,0,1,273.84,0q11.52,0,18.55,6.17t8.14,17.31H286.82q-.49-6.43-3.59-9.34t-9.39-2.9q-6.84,0-10.25,4.91t-3.5,15.24v5q0,10.79,3.27,15.76c2.18,3.33,5.61,5,10.3,5,4.24,0,7.39-1,9.48-2.9s3.28-4.92,3.59-9Z"/><path class="cls-1" d="M347,53.73H323l-4.57,13.7H303.82L328.58.91h12.7l24.9,66.52H351.6Zm-20.33-11.1h16.63l-8.36-24.9Z"/><path class="cls-1" d="M397,43.08H386.1V67.43H372.39V.91h24.72q11.79,0,18.18,5.26T421.69,21a20.51,20.51,0,0,1-2.95,11.35,20.09,20.09,0,0,1-8.93,7.24L424.2,66.79v.64H409.49ZM386.1,32h11q5.16,0,8-2.63A9.41,9.41,0,0,0,408,22.11a10.05,10.05,0,0,0-2.67-7.4c-1.78-1.79-4.52-2.69-8.2-2.69h-11Z"/><path class="cls-1" d="M432.1,67.43V.91h20.47a31,31,0,0,1,15.69,4A27.54,27.54,0,0,1,479.07,16.1,34.67,34.67,0,0,1,483,32.67v3.06a34.79,34.79,0,0,1-3.81,16.49,27.37,27.37,0,0,1-10.76,11.19,31.33,31.33,0,0,1-15.67,4ZM445.81,12v44.4h6.62q8,0,12.29-5.25t4.34-15V32.62q0-10.14-4.2-15.37T452.57,12Z"/><rect class="cls-2" x="106.52" y="204.97" width="187.33" height="269.14" rx="19.86" ry="19.86" transform="translate(-98.06 81.83) rotate(-18.65)"/><path class="cls-3" d="M229.64,368.55l-37.11-57.46,5.1,68.26q.52,7.78.48,11.27a14.39,14.39,0,0,1-2,6.88,11.16,11.16,0,0,1-6.48,4.93,12.07,12.07,0,0,1-6.57.58,11.58,11.58,0,0,1-5.26-2.84,28.6,28.6,0,0,1-4.56-5.55q-2.17-3.36-4-6.26l-40.18-65a46.41,46.41,0,0,1-4.64-8.87,10.09,10.09,0,0,1,.37-7.77,9.37,9.37,0,0,1,5.7-5q5.44-1.83,8.57,1.25a46.47,46.47,0,0,1,6.93,9.69l33.53,56.84-4.89-62.13a100.22,100.22,0,0,1-.49-11,15.08,15.08,0,0,1,2.15-7.33q2-3.48,7-5.16c3.36-1.13,6.25-1.14,8.7,0a14.94,14.94,0,0,1,5.77,4.38q2.12,2.7,6.31,9.17L238,349.72l-7.77-65.53a80.56,80.56,0,0,1-.75-8.1,12.78,12.78,0,0,1,1.24-5.84q1.32-2.83,5.22-4.15a9.45,9.45,0,0,1,7.53.52,10,10,0,0,1,5.05,6,50.1,50.1,0,0,1,1.68,9.87l7.44,76.07q.74,7.72.75,11.41a14.85,14.85,0,0,1-1.79,7.1c-1.21,2.26-3.42,3.94-6.64,5a11.24,11.24,0,0,1-8.14,0,13.8,13.8,0,0,1-5.67-4.18Q234.08,375.26,229.64,368.55Z"/><path class="cls-3" d="M91,257.52a8.59,8.59,0,0,1-.17-4.56,10.32,10.32,0,0,1,2.43-4.7A11.37,11.37,0,0,1,98.27,245a11.68,11.68,0,0,1,5.56-.59,9,9,0,0,1,4.53,2,8.6,8.6,0,0,1,2.68,3.9,7.35,7.35,0,0,1,.38,3.44,10.27,10.27,0,0,1-.85,2.94q-.63,1.33-2.31,4.54a14.65,14.65,0,0,0-.71,1.55,5,5,0,0,0-.3,1.13,5.08,5.08,0,0,0,0,.95c0,.3.07.83.16,1.59a2.43,2.43,0,0,1-1.65,3.05,2.54,2.54,0,0,1-2-.14,3.16,3.16,0,0,1-1.45-1.93,8.94,8.94,0,0,1-.53-3.31,8.48,8.48,0,0,1,.61-2.8,33.66,33.66,0,0,1,1.54-3.17q.89-1.65,1.26-2.46a6.23,6.23,0,0,0,.51-1.69,3.7,3.7,0,0,0-.16-1.77,4.18,4.18,0,0,0-2.18-2.51,4.52,4.52,0,0,0-3.51-.13,4.38,4.38,0,0,0-2.87,2.3,10.27,10.27,0,0,0-.59,4.12c.09,1.78-.51,2.89-1.79,3.32a2.66,2.66,0,0,1-2.2-.21A2.82,2.82,0,0,1,91,257.52Zm17.84,20.29a3.22,3.22,0,0,1-4.17-2.2,3.38,3.38,0,0,1,.12-2.58,3.11,3.11,0,0,1,1.88-1.67,3,3,0,0,1,2.45.21,3.34,3.34,0,0,1,1.64,2,3.23,3.23,0,0,1-.11,2.67A3.12,3.12,0,0,1,108.79,277.81Z"/><path class="cls-3" d="M285.35,414.23a8.36,8.36,0,0,1-.16-4.44,10.08,10.08,0,0,1,2.36-4.58,11.12,11.12,0,0,1,4.93-3.15,11.35,11.35,0,0,1,5.42-.58,8.74,8.74,0,0,1,4.41,1.91,8.25,8.25,0,0,1,2.61,3.8,7.2,7.2,0,0,1,.37,3.35,10.3,10.3,0,0,1-.83,2.87q-.61,1.29-2.25,4.41a16.07,16.07,0,0,0-.69,1.51,5,5,0,0,0-.3,1.1,4.87,4.87,0,0,0,0,.93c0,.29.08.81.16,1.54a2.37,2.37,0,0,1-1.6,3,2.46,2.46,0,0,1-2-.14,3,3,0,0,1-1.41-1.88,8.66,8.66,0,0,1-.52-3.23,8.36,8.36,0,0,1,.59-2.72c.35-.84.85-1.87,1.51-3.09.57-1.07,1-1.86,1.22-2.39a6.19,6.19,0,0,0,.5-1.65,3.49,3.49,0,0,0-.16-1.72,4,4,0,0,0-2.13-2.44,4.36,4.36,0,0,0-3.41-.14,4.28,4.28,0,0,0-2.8,2.25,9.93,9.93,0,0,0-.57,4c.08,1.73-.5,2.81-1.74,3.23a2.56,2.56,0,0,1-2.14-.2A2.73,2.73,0,0,1,285.35,414.23ZM302.73,434a3.12,3.12,0,0,1-4.06-2.14,3.23,3.23,0,0,1,.12-2.52,3,3,0,0,1,1.82-1.62,2.9,2.9,0,0,1,2.39.2,3.31,3.31,0,0,1,1.6,1.94,3.21,3.21,0,0,1-.11,2.61A3.07,3.07,0,0,1,302.73,434Z"/><rect class="cls-4" x="167.77" y="203.01" width="199.56" height="269.14" rx="19.86" ry="19.86"/><path class="cls-5" d="M287.39,374.49l-17.88-66.31-18.1,66.31q-2.11,7.54-3.36,10.83a14.45,14.45,0,0,1-4.34,5.88,12.36,12.36,0,0,1-8.22,2.6,13.54,13.54,0,0,1-6.83-1.54,11.92,11.92,0,0,1-4.34-4.38,27.62,27.62,0,0,1-2.71-6.71q-1.06-3.89-1.89-7.21L201.31,299.5a43.91,43.91,0,0,1-1.66-9.88,9.71,9.71,0,0,1,3-7.24,10.28,10.28,0,0,1,7.47-2.94c4.07,0,6.82,1.3,8.22,3.92a44.28,44.28,0,0,1,3.7,11.39l14.48,64.58,16.22-60.43A96.17,96.17,0,0,1,256,288.34a15.09,15.09,0,0,1,4.68-6.26q3.24-2.64,8.82-2.64c3.77,0,6.7.91,8.79,2.75a15.05,15.05,0,0,1,4.34,6q1.2,3.24,3.24,10.71l16.37,60.43,14.49-64.58a75.53,75.53,0,0,1,2-7.92A12.66,12.66,0,0,1,322,281.7q2.29-2.26,6.68-2.26a10.38,10.38,0,0,1,7.43,2.9,9.65,9.65,0,0,1,3.05,7.28,47,47,0,0,1-1.66,9.88L319.08,374Q317.19,381.51,316,385a14.7,14.7,0,0,1-4.23,6.15q-3,2.64-8.41,2.64a12.46,12.46,0,0,1-8.22-2.56,13.81,13.81,0,0,1-4.3-5.77Q289.58,382.26,287.39,374.49Z"/><path class="cls-5" d="M185.23,224.94a8.21,8.21,0,0,1,1.38-4.37,10.75,10.75,0,0,1,4-3.68,12.72,12.72,0,0,1,6.21-1.45,13.11,13.11,0,0,1,5.82,1.22,9.48,9.48,0,0,1,3.9,3.3,8.11,8.11,0,0,1,1.38,4.55,7.07,7.07,0,0,1-.79,3.39,10.18,10.18,0,0,1-1.86,2.51c-.72.71-2,1.89-3.88,3.56a16,16,0,0,0-1.24,1.24,5,5,0,0,0-.69,1,5.19,5.19,0,0,0-.36.89c-.08.29-.2.81-.37,1.55a2.54,2.54,0,0,1-2.71,2.37,2.79,2.79,0,0,1-2-.77,3.09,3.09,0,0,1-.8-2.3,8.37,8.37,0,0,1,.59-3.31,8.27,8.27,0,0,1,1.57-2.46c.65-.7,1.53-1.54,2.63-2.51s1.68-1.49,2.11-1.92a6.66,6.66,0,0,0,1.09-1.44,3.45,3.45,0,0,0,.44-1.73,4,4,0,0,0-1.35-3.07,4.91,4.91,0,0,0-3.49-1.25,4.81,4.81,0,0,0-3.68,1.26,10.08,10.08,0,0,0-2,3.72c-.51,1.71-1.49,2.57-2.93,2.57a2.89,2.89,0,0,1-2.15-.9A2.76,2.76,0,0,1,185.23,224.94Zm11.09,24.93a3.58,3.58,0,0,1-2.42-.9,3.15,3.15,0,0,1-1-2.51,3.21,3.21,0,0,1,1-2.41,3.32,3.32,0,0,1,2.45-1,3.35,3.35,0,0,1,3.39,3.39,3.18,3.18,0,0,1-1,2.5A3.48,3.48,0,0,1,196.32,249.87Z"/><path class="cls-5" d="M328.07,435.59a8,8,0,0,1,1.35-4.27,10.31,10.31,0,0,1,3.94-3.57,12.38,12.38,0,0,1,6.05-1.42,12.91,12.91,0,0,1,5.67,1.18,9.24,9.24,0,0,1,3.8,3.23,7.9,7.9,0,0,1,1.34,4.43,6.8,6.8,0,0,1-.77,3.29,9.93,9.93,0,0,1-1.81,2.45c-.71.69-2,1.84-3.78,3.47-.5.46-.9.86-1.21,1.21a4.41,4.41,0,0,0-.67,1,5.18,5.18,0,0,0-.35.86c-.08.29-.2.8-.36,1.52a2.47,2.47,0,0,1-2.64,2.3,2.69,2.69,0,0,1-1.93-.75,2.94,2.94,0,0,1-.79-2.24,7.91,7.91,0,0,1,2.1-5.61c.64-.69,1.49-1.5,2.57-2.45s1.63-1.45,2.05-1.87a6.06,6.06,0,0,0,1.06-1.41,3.37,3.37,0,0,0,.44-1.68,3.91,3.91,0,0,0-1.32-3,4.82,4.82,0,0,0-3.4-1.22,4.7,4.7,0,0,0-3.59,1.23,9.78,9.78,0,0,0-1.95,3.62c-.5,1.67-1.45,2.5-2.86,2.5a2.82,2.82,0,0,1-2.09-.87A2.65,2.65,0,0,1,328.07,435.59Zm10.81,24.27a3.46,3.46,0,0,1-2.36-.88,3.05,3.05,0,0,1-1-2.44,3.15,3.15,0,0,1,1-2.35,3.24,3.24,0,0,1,2.39-.95,3.26,3.26,0,0,1,3.3,3.3,3.1,3.1,0,0,1-1,2.43A3.36,3.36,0,0,1,338.88,459.86Z"/></g></g></svg>